<?xml version="1.0" encoding="iso-8859-1"?>
<!-- Generator: Adobe Illustrator 22.1.0, SVG Export Plug-In . SVG Version: 6.00 Build 0)  -->
<svg version="1.1" id="Layer_1" xmlns="http://www.w3.org/2000/svg" xmlns:xlink="http://www.w3.org/1999/xlink" x="0px" y="0px"
	 viewBox="0 0 121.857 144.766" style="enable-background:new 0 0 121.857 144.766;" xml:space="preserve">
<g id="dark-logo_x60_122x145">
	<path d="M35.356,87.131h-3.151l-0.444,1.216h-1.649l2.728-7.053h1.882l2.718,7.053H35.8L35.356,87.131z M32.607,85.83h2.337
		l-1.164-3.235L32.607,85.83z"/>
	<path d="M42.951,82.615h-2.062v-1.321h5.626v1.321h-2.052v5.731h-1.512V82.615z"/>
	<path d="M52.569,85.386h-3.331v2.961h-1.501v-7.053h1.501v2.77h3.331v-2.77h1.512v7.053h-1.512V85.386z"/>
	<path d="M59.067,81.177c2.136,0,3.69,1.523,3.69,3.648s-1.555,3.648-3.69,3.648c-2.125,0-3.68-1.523-3.68-3.648
		S56.942,81.177,59.067,81.177z M59.067,82.51c-1.301,0-2.136,0.993-2.136,2.315c0,1.312,0.835,2.316,2.136,2.316
		c1.3,0,2.146-1.005,2.146-2.316C61.214,83.503,60.367,82.51,59.067,82.51z"/>
	<path d="M64.073,81.294h1.523v4.188c0,0.982,0.539,1.66,1.639,1.66c1.078,0,1.618-0.678,1.618-1.66v-4.188h1.522v4.229
		c0,1.755-1.004,2.95-3.141,2.95c-2.157,0-3.162-1.205-3.162-2.939V81.294z"/>
	<path d="M72.368,86.21c0.498,0.52,1.27,0.952,2.242,0.952c0.825,0,1.227-0.392,1.227-0.793c0-0.528-0.613-0.708-1.428-0.898
		c-1.152-0.265-2.633-0.582-2.633-2.157c0-1.174,1.016-2.125,2.676-2.125c1.121,0,2.051,0.338,2.749,0.982l-0.835,1.1
		c-0.571-0.528-1.332-0.771-2.02-0.771c-0.678,0-1.037,0.296-1.037,0.719c0,0.477,0.592,0.624,1.406,0.814
		c1.164,0.265,2.645,0.613,2.645,2.178c0,1.291-0.92,2.264-2.824,2.264c-1.354,0-2.326-0.455-2.992-1.121L72.368,86.21z"/>
	<path d="M83.055,87.131h-3.151l-0.444,1.216H77.81l2.728-7.053h1.883l2.718,7.053h-1.64L83.055,87.131z M80.305,85.83h2.338
		l-1.164-3.235L80.305,85.83z"/>
	<path d="M87.554,83.609v4.737h-1.502v-7.053h1.544l3.268,4.568v-4.568h1.502v7.053h-1.449L87.554,83.609z"/>
	<path d="M94.02,81.294h2.781c2.209,0,3.742,1.406,3.742,3.531s-1.533,3.521-3.742,3.521H94.02V81.294z M96.801,87.024
		c1.396,0,2.209-1.004,2.209-2.199c0-1.248-0.761-2.21-2.209-2.21h-1.28v4.409H96.801z"/>
	<path d="M66.411,96.712l-1.226,4.844h-1.597l-2.02-7.054h1.681l1.237,5.097l1.343-5.097h1.174l1.333,5.097l1.227-5.097h1.691
		l-2.01,7.054h-1.596L66.411,96.712z"/>
	<path d="M75.35,94.386c2.137,0,3.691,1.523,3.691,3.648s-1.555,3.648-3.691,3.648c-2.125,0-3.68-1.523-3.68-3.648
		S73.225,94.386,75.35,94.386z M75.35,95.718c-1.301,0-2.136,0.994-2.136,2.316c0,1.311,0.835,2.315,2.136,2.315
		s2.146-1.005,2.146-2.315C77.497,96.712,76.651,95.718,75.35,95.718z"/>
	<path d="M82.959,99.028h-1.1v2.527h-1.502v-7.054h3.3c1.469,0,2.368,0.962,2.368,2.273c0,1.248-0.782,1.914-1.544,2.094
		l1.586,2.687h-1.723L82.959,99.028z M83.434,95.792h-1.575v1.945h1.575c0.604,0,1.058-0.381,1.058-0.973
		S84.038,95.792,83.434,95.792z"/>
	<path d="M87.416,94.502h2.781c2.21,0,3.743,1.407,3.743,3.532s-1.533,3.521-3.743,3.521h-2.781V94.502z M90.197,100.233
		c1.396,0,2.21-1.004,2.21-2.199c0-1.248-0.762-2.211-2.21-2.211h-1.279v4.41H90.197z"/>
	<path d="M95.605,99.419c0.497,0.519,1.269,0.952,2.241,0.952c0.826,0,1.228-0.392,1.228-0.794c0-0.528-0.613-0.708-1.428-0.898
		c-1.153-0.264-2.633-0.582-2.633-2.156c0-1.174,1.015-2.126,2.675-2.126c1.121,0,2.052,0.339,2.75,0.983l-0.836,1.1
		c-0.57-0.529-1.332-0.771-2.02-0.771c-0.677,0-1.036,0.295-1.036,0.719c0,0.476,0.592,0.623,1.406,0.814
		c1.163,0.264,2.644,0.613,2.644,2.178c0,1.29-0.92,2.264-2.823,2.264c-1.354,0-2.327-0.455-2.993-1.121L95.605,99.419z"/>
	<path d="M0,0v121.857h121.857V0H0z M112.827,112.827H9.03V9.03h103.796V112.827z"/>
	<path d="M12.987,138.135h3.047c1.416,0,2.188,0.957,2.188,2.1c0,1.133-0.781,2.08-2.188,2.08h-1.66v2.334h-1.387V138.135z
		 M15.849,139.326h-1.475v1.797h1.475c0.547,0,0.957-0.352,0.957-0.898C16.806,139.688,16.396,139.326,15.849,139.326z"/>
	<path d="M26.608,138.135h1.387v6.514h-1.387V138.135z"/>
	<path d="M36.496,141.397c0-2.002,1.514-3.369,3.418-3.369c1.484,0,2.314,0.781,2.773,1.592l-1.191,0.586
		c-0.273-0.527-0.859-0.947-1.582-0.947c-1.133,0-1.992,0.908-1.992,2.139s0.859,2.139,1.992,2.139c0.723,0,1.309-0.41,1.582-0.947
		l1.191,0.576c-0.469,0.811-1.289,1.602-2.773,1.602C38.009,144.766,36.496,143.399,36.496,141.397z"/>
	<path d="M52.548,139.356h-1.904v-1.221h5.195v1.221h-1.895v5.293h-1.396V139.356z"/>
	<path d="M64.254,138.135h1.406v3.867c0,0.908,0.498,1.533,1.514,1.533c0.996,0,1.494-0.625,1.494-1.533v-3.867h1.406v3.906
		c0,1.621-0.928,2.725-2.9,2.725c-1.992,0-2.92-1.113-2.92-2.715V138.135z"/>
	<path d="M81.293,142.315h-1.016v2.334H78.89v-6.514h3.047c1.357,0,2.188,0.889,2.188,2.1c0,1.152-0.723,1.768-1.426,1.934
		l1.465,2.48h-1.592L81.293,142.315z M81.732,139.326h-1.455v1.797h1.455c0.557,0,0.977-0.352,0.977-0.898
		S82.289,139.326,81.732,139.326z"/>
	<path d="M92.696,138.135h4.609v1.191h-3.223v1.416h3.154v1.191h-3.154v1.514h3.223v1.201h-4.609V138.135z"/>
	<path d="M106.228,142.676c0.459,0.479,1.172,0.879,2.07,0.879c0.762,0,1.133-0.361,1.133-0.732c0-0.488-0.566-0.654-1.318-0.83
		c-1.064-0.244-2.432-0.537-2.432-1.992c0-1.084,0.938-1.963,2.471-1.963c1.035,0,1.895,0.312,2.539,0.908l-0.771,1.016
		c-0.527-0.488-1.23-0.713-1.865-0.713c-0.625,0-0.957,0.273-0.957,0.664c0,0.439,0.547,0.576,1.299,0.752
		c1.074,0.244,2.441,0.566,2.441,2.012c0,1.191-0.85,2.09-2.607,2.09c-1.25,0-2.148-0.42-2.764-1.035L106.228,142.676z"/>
</g>
</svg>
