<?xml version="1.0" encoding="iso-8859-1"?>
<!-- Generator: Adobe Illustrator 22.1.0, SVG Export Plug-In . SVG Version: 6.00 Build 0)  -->
<svg version="1.1" id="Layer_1" xmlns="http://www.w3.org/2000/svg" xmlns:xlink="http://www.w3.org/1999/xlink" x="0px" y="0px"
	 viewBox="0 0 135.439 160.885" style="enable-background:new 0 0 135.439 160.885;" xml:space="preserve">
<g id="logo_x60_136x161">
	<g>
		<path style="fill:#FFFFFF;" d="M39.295,96.843h-3.501L35.3,98.194h-1.832l3.031-7.836h2.091l3.019,7.836h-1.821L39.295,96.843z
			 M36.24,95.397h2.597l-1.292-3.595L36.24,95.397z"/>
		<path style="fill:#FFFFFF;" d="M47.738,91.826h-2.291v-1.469h6.25v1.469h-2.279v6.368h-1.68V91.826z"/>
		<path style="fill:#FFFFFF;" d="M58.427,94.904h-3.701v3.289h-1.668v-7.836h1.668v3.078h3.701v-3.078h1.68v7.836h-1.68V94.904z"/>
		<path style="fill:#FFFFFF;" d="M65.649,90.228c2.373,0,4.1,1.692,4.1,4.053c0,2.362-1.728,4.054-4.1,4.054
			c-2.362,0-4.089-1.692-4.089-4.054C61.56,91.92,63.287,90.228,65.649,90.228z M65.649,91.708c-1.445,0-2.373,1.104-2.373,2.573
			c0,1.457,0.928,2.573,2.373,2.573c1.445,0,2.385-1.116,2.385-2.573C68.034,92.812,67.094,91.708,65.649,91.708z"/>
		<path style="fill:#FFFFFF;" d="M71.215,90.357h1.692v4.653c0,1.093,0.599,1.845,1.821,1.845c1.198,0,1.797-0.752,1.797-1.845
			v-4.653h1.692v4.699c0,1.951-1.116,3.278-3.489,3.278c-2.397,0-3.513-1.339-3.513-3.266V90.357z"/>
		<path style="fill:#FFFFFF;" d="M80.435,95.82c0.552,0.576,1.41,1.058,2.491,1.058c0.916,0,1.363-0.435,1.363-0.881
			c0-0.587-0.682-0.787-1.586-0.998c-1.281-0.294-2.925-0.646-2.925-2.397c0-1.304,1.128-2.361,2.972-2.361
			c1.246,0,2.28,0.376,3.055,1.092l-0.928,1.222c-0.635-0.587-1.48-0.858-2.244-0.858c-0.752,0-1.151,0.329-1.151,0.799
			c0,0.529,0.658,0.693,1.562,0.905c1.292,0.293,2.937,0.681,2.937,2.42c0,1.434-1.022,2.515-3.137,2.515
			c-1.504,0-2.585-0.505-3.325-1.246L80.435,95.82z"/>
		<path style="fill:#FFFFFF;" d="M92.311,96.843h-3.501l-0.494,1.351h-1.832l3.031-7.836h2.091l3.019,7.836h-1.821L92.311,96.843z
			 M89.256,95.397h2.597l-1.292-3.595L89.256,95.397z"/>
		<path style="fill:#FFFFFF;" d="M97.312,92.93v5.263h-1.668v-7.836h1.715l3.631,5.075v-5.075h1.668v7.836h-1.609L97.312,92.93z"/>
		<path style="fill:#FFFFFF;" d="M104.499,90.357h3.09c2.455,0,4.159,1.563,4.159,3.924c0,2.362-1.704,3.912-4.159,3.912h-3.09
			V90.357z M107.589,96.725c1.551,0,2.455-1.116,2.455-2.444c0-1.386-0.846-2.455-2.455-2.455h-1.422v4.899H107.589z"/>
		<path style="fill:#FFFFFF;" d="M73.812,107.493l-1.363,5.381h-1.774l-2.244-7.836h1.868l1.374,5.663l1.492-5.663h1.304l1.48,5.663
			l1.363-5.663h1.88l-2.232,7.836h-1.774L73.812,107.493z"/>
		<path style="fill:#FFFFFF;" d="M83.747,104.909c2.373,0,4.1,1.692,4.1,4.053c0,2.362-1.728,4.054-4.1,4.054
			c-2.362,0-4.089-1.692-4.089-4.054C79.659,106.601,81.386,104.909,83.747,104.909z M83.747,106.389
			c-1.445,0-2.373,1.104-2.373,2.573c0,1.457,0.928,2.573,2.373,2.573c1.445,0,2.385-1.116,2.385-2.573
			C86.133,107.493,85.193,106.389,83.747,106.389z"/>
		<path style="fill:#FFFFFF;" d="M92.203,110.067h-1.222v2.808h-1.668v-7.836h3.666c1.633,0,2.632,1.069,2.632,2.526
			c0,1.386-0.87,2.126-1.716,2.326l1.763,2.984h-1.915L92.203,110.067z M92.732,106.472h-1.75v2.161h1.75
			c0.67,0,1.175-0.423,1.175-1.08C93.907,106.894,93.402,106.472,92.732,106.472z"/>
		<path style="fill:#FFFFFF;" d="M97.159,105.038h3.09c2.455,0,4.159,1.563,4.159,3.924c0,2.362-1.704,3.912-4.159,3.912h-3.09
			V105.038z M100.249,111.406c1.551,0,2.455-1.116,2.455-2.444c0-1.386-0.846-2.455-2.455-2.455h-1.422v4.899H100.249z"/>
		<path style="fill:#FFFFFF;" d="M106.261,110.501c0.552,0.576,1.41,1.058,2.491,1.058c0.916,0,1.363-0.435,1.363-0.881
			c0-0.587-0.682-0.787-1.586-0.998c-1.281-0.294-2.925-0.646-2.925-2.397c0-1.304,1.128-2.361,2.972-2.361
			c1.246,0,2.28,0.376,3.055,1.092l-0.928,1.222c-0.635-0.587-1.48-0.858-2.244-0.858c-0.752,0-1.151,0.329-1.151,0.799
			c0,0.529,0.658,0.693,1.562,0.905c1.292,0.293,2.937,0.681,2.937,2.42c0,1.434-1.022,2.515-3.137,2.515
			c-1.504,0-2.585-0.505-3.325-1.246L106.261,110.501z"/>
	</g>
	<path style="fill:#FFFFFF;" d="M0,0v135.439h135.439V0H0z M125.402,125.402H10.037V10.037h115.366V125.402z"/>
	<g>
		<path style="fill:#FFFFFF;" d="M15.989,153.554h3.369c1.566,0,2.419,1.058,2.419,2.321c0,1.253-0.864,2.3-2.419,2.3h-1.836v2.581
			h-1.533V153.554z M19.153,154.871h-1.63v1.986h1.63c0.605,0,1.058-0.389,1.058-0.993
			C20.211,155.271,19.757,154.871,19.153,154.871z"/>
		<path style="fill:#FFFFFF;" d="M31.036,153.554h1.533v7.202h-1.533V153.554z"/>
		<path style="fill:#FFFFFF;" d="M41.959,157.16c0-2.213,1.673-3.725,3.779-3.725c1.641,0,2.559,0.864,3.066,1.76l-1.317,0.648
			c-0.302-0.583-0.95-1.047-1.749-1.047c-1.252,0-2.203,1.004-2.203,2.364c0,1.36,0.95,2.365,2.203,2.365
			c0.799,0,1.447-0.453,1.749-1.047l1.317,0.637c-0.518,0.897-1.425,1.771-3.066,1.771C43.632,160.885,41.959,159.373,41.959,157.16
			z"/>
		<path style="fill:#FFFFFF;" d="M59.693,154.903h-2.106v-1.35h5.744v1.35h-2.094v5.852h-1.544V154.903z"/>
		<path style="fill:#FFFFFF;" d="M72.624,153.554h1.555v4.275c0,1.004,0.55,1.695,1.673,1.695c1.102,0,1.652-0.691,1.652-1.695
			v-4.275h1.555v4.319c0,1.793-1.025,3.012-3.207,3.012c-2.202,0-3.228-1.231-3.228-3.001V153.554z"/>
		<path style="fill:#FFFFFF;" d="M91.449,158.175h-1.123v2.581h-1.533v-7.202h3.368c1.5,0,2.419,0.983,2.419,2.321
			c0,1.274-0.799,1.954-1.576,2.138l1.62,2.742h-1.76L91.449,158.175z M91.934,154.871h-1.608v1.986h1.608
			c0.616,0,1.08-0.389,1.08-0.993C93.014,155.259,92.55,154.871,91.934,154.871z"/>
		<path style="fill:#FFFFFF;" d="M104.044,153.554h5.096v1.318h-3.563v1.565h3.488v1.317h-3.488v1.674h3.563v1.328h-5.096V153.554z"
			/>
		<path style="fill:#FFFFFF;" d="M118.993,158.575c0.507,0.529,1.295,0.971,2.289,0.971c0.843,0,1.253-0.399,1.253-0.81
			c0-0.54-0.627-0.723-1.458-0.918c-1.177-0.27-2.688-0.594-2.688-2.202c0-1.199,1.037-2.17,2.731-2.17
			c1.144,0,2.095,0.346,2.807,1.004l-0.853,1.123c-0.583-0.54-1.36-0.788-2.062-0.788c-0.691,0-1.058,0.302-1.058,0.734
			c0,0.485,0.605,0.637,1.436,0.831c1.188,0.27,2.699,0.627,2.699,2.225c0,1.317-0.939,2.31-2.882,2.31
			c-1.382,0-2.375-0.464-3.056-1.144L118.993,158.575z"/>
	</g>
</g>
</svg>
