<?xml version="1.0" encoding="iso-8859-1"?>
<!-- Generator: Adobe Illustrator 22.1.0, SVG Export Plug-In . SVG Version: 6.00 Build 0)  -->
<svg version="1.1" id="Layer_1" xmlns="http://www.w3.org/2000/svg" xmlns:xlink="http://www.w3.org/1999/xlink" x="0px" y="0px"
	 viewBox="0 0 342 200" style="enable-background:new 0 0 342 200;" xml:space="preserve">
<g id="lil-city">
	<g>
		<polygon style="fill:#DAE2E8;" points="129.97,128.328 240.907,159.815 129.97,181.741 19.033,159.815 		"/>
	</g>
	<polygon style="fill:#EBF7FF;" points="129.97,103.256 240.907,125.181 129.97,147.106 19.033,125.181 	"/>
	<polygon style="fill:#BACEDB;" points="129.97,170.958 240.907,149.033 240.907,125.181 129.97,147.106 	"/>
	<polygon style="fill:#C7DEED;" points="129.97,170.958 19.033,149.033 19.033,125.181 129.97,147.106 	"/>
	<polygon style="fill:#51D5FB;" points="75.467,115.169 71.684,113.891 75.467,112.622 80.82,112.622 84.604,113.891 80.82,115.169 
			"/>
	
		<linearGradient id="SVGID_1_" gradientUnits="userSpaceOnUse" x1="77.0696" y1="84.896" x2="79.2975" y2="78.1193" gradientTransform="matrix(1 0 0 -1 0 202)">
		<stop  offset="0.0048" style="stop-color:#39A1CB"/>
		<stop  offset="1" style="stop-color:#284969"/>
	</linearGradient>
	<rect x="75.467" y="115.178" style="fill:url(#SVGID_1_);" width="5.352" height="10.382"/>
	<polygon style="fill:#44B9DA;" points="75.467,115.178 71.684,113.891 71.684,124.283 75.467,125.56 	"/>
	
		<linearGradient id="SVGID_2_" gradientUnits="userSpaceOnUse" x1="81.7898" y1="85.078" x2="83.7028" y2="79.2594" gradientTransform="matrix(1 0 0 -1 0 202)">
		<stop  offset="0" style="stop-color:#3C7FAA"/>
		<stop  offset="1" style="stop-color:#304669"/>
	</linearGradient>
	<polygon style="fill:url(#SVGID_2_);" points="80.82,115.178 84.603,113.891 84.603,124.283 80.82,125.56 	"/>
	<polygon style="fill:#51D5FB;" points="92.948,57.363 89.164,56.086 92.948,54.816 98.3,54.816 102.084,56.086 98.3,57.363 	"/>
	
		<linearGradient id="SVGID_3_" gradientUnits="userSpaceOnUse" x1="91.5426" y1="134.8408" x2="100.0132" y2="109.076" gradientTransform="matrix(1 0 0 -1 0 202)">
		<stop  offset="0.0048" style="stop-color:#39A1CB"/>
		<stop  offset="1" style="stop-color:#284969"/>
	</linearGradient>
	<rect x="92.948" y="57.373" style="fill:url(#SVGID_3_);" width="5.352" height="44.401"/>
	<polygon style="fill:#44B9DA;" points="92.948,57.373 89.164,56.086 89.164,100.497 92.948,101.774 	"/>
	
		<linearGradient id="SVGID_4_" gradientUnits="userSpaceOnUse" x1="96.2619" y1="135.0226" x2="104.4175" y2="110.216" gradientTransform="matrix(1 0 0 -1 0 202)">
		<stop  offset="0" style="stop-color:#3C7FAA"/>
		<stop  offset="1" style="stop-color:#304669"/>
	</linearGradient>
	<polygon style="fill:url(#SVGID_4_);" points="98.3,57.373 102.083,56.086 102.083,100.497 98.3,101.774 	"/>
	<polygon style="fill:#51D5FB;" points="87.603,79.227 83.82,77.95 87.603,76.68 92.956,76.68 96.74,77.95 92.956,79.227 	"/>
	
		<linearGradient id="SVGID_5_" gradientUnits="userSpaceOnUse" x1="86.1977" y1="112.9774" x2="94.6683" y2="87.2126" gradientTransform="matrix(1 0 0 -1 0 202)">
		<stop  offset="0.0048" style="stop-color:#39A1CB"/>
		<stop  offset="1" style="stop-color:#284969"/>
	</linearGradient>
	<rect x="87.603" y="79.236" style="fill:url(#SVGID_5_);" width="5.352" height="44.401"/>
	<polygon style="fill:#44B9DA;" points="87.603,79.236 83.82,77.95 83.82,122.36 87.603,123.637 	"/>
	
		<linearGradient id="SVGID_6_" gradientUnits="userSpaceOnUse" x1="90.9178" y1="113.1592" x2="99.0734" y2="88.3527" gradientTransform="matrix(1 0 0 -1 0 202)">
		<stop  offset="0" style="stop-color:#3C7FAA"/>
		<stop  offset="1" style="stop-color:#304669"/>
	</linearGradient>
	<polygon style="fill:url(#SVGID_6_);" points="92.956,79.236 96.739,77.95 96.739,122.36 92.956,123.637 	"/>
	<polygon style="fill:#51D5FB;" points="83.721,103.648 79.938,102.371 83.721,101.101 89.073,101.101 92.857,102.371 
		89.073,103.648 	"/>
	
		<linearGradient id="SVGID_7_" gradientUnits="userSpaceOnUse" x1="84.1795" y1="93.4268" x2="88.7817" y2="79.4285" gradientTransform="matrix(1 0 0 -1 0 202)">
		<stop  offset="0.0048" style="stop-color:#39A1CB"/>
		<stop  offset="1" style="stop-color:#284969"/>
	</linearGradient>
	<rect x="83.721" y="103.658" style="fill:url(#SVGID_7_);" width="5.352" height="23.32"/>
	<polygon style="fill:#44B9DA;" points="83.721,103.658 79.938,102.371 79.938,125.701 83.721,126.978 	"/>
	
		<linearGradient id="SVGID_8_" gradientUnits="userSpaceOnUse" x1="88.8993" y1="93.6086" x2="93.1864" y2="80.5686" gradientTransform="matrix(1 0 0 -1 0 202)">
		<stop  offset="0" style="stop-color:#3C7FAA"/>
		<stop  offset="1" style="stop-color:#304669"/>
	</linearGradient>
	<polygon style="fill:url(#SVGID_8_);" points="89.073,103.658 92.857,102.371 92.857,125.701 89.073,126.978 	"/>
	<polygon style="fill:#51D5FB;" points="100.469,67.96 96.685,66.683 100.469,65.413 105.821,65.413 109.605,66.683 105.821,67.96 	
		"/>
	
		<linearGradient id="SVGID_9_" gradientUnits="userSpaceOnUse" x1="97.7701" y1="120.8641" x2="108.9254" y2="86.9336" gradientTransform="matrix(1 0 0 -1 0 202)">
		<stop  offset="0.0048" style="stop-color:#39A1CB"/>
		<stop  offset="1" style="stop-color:#284969"/>
	</linearGradient>
	<rect x="100.469" y="67.969" style="fill:url(#SVGID_9_);" width="5.352" height="59.031"/>
	<polygon style="fill:#3FACCB;" points="100.469,67.969 96.685,66.683 96.685,125.723 100.469,127 	"/>
	
		<linearGradient id="SVGID_10_" gradientUnits="userSpaceOnUse" x1="102.4893" y1="121.0457" x2="113.3295" y2="88.0734" gradientTransform="matrix(1 0 0 -1 0 202)">
		<stop  offset="0" style="stop-color:#3C7FAA"/>
		<stop  offset="1" style="stop-color:#304669"/>
	</linearGradient>
	<polygon style="fill:url(#SVGID_10_);" points="105.821,67.969 109.604,66.683 109.604,125.723 105.821,127 	"/>
	<polygon style="fill:#51D5FB;" points="91.387,97.44 87.604,96.162 91.387,94.893 96.74,94.893 100.524,96.162 96.74,97.44 	"/>
	
		<linearGradient id="SVGID_11_" gradientUnits="userSpaceOnUse" x1="91.1818" y1="97.9007" x2="97.1618" y2="79.7116" gradientTransform="matrix(1 0 0 -1 0 202)">
		<stop  offset="0.0048" style="stop-color:#428BBC"/>
		<stop  offset="1" style="stop-color:#38527A"/>
	</linearGradient>
	<rect x="91.387" y="97.449" style="fill:url(#SVGID_11_);" width="5.352" height="30.828"/>
	<polygon style="fill:#3FACCB;" points="91.387,97.449 87.604,96.162 87.604,127 91.387,128.277 	"/>
	
		<linearGradient id="SVGID_12_" gradientUnits="userSpaceOnUse" x1="95.902" y1="98.0826" x2="101.567" y2="80.8518" gradientTransform="matrix(1 0 0 -1 0 202)">
		<stop  offset="0" style="stop-color:#3C7FAA"/>
		<stop  offset="1" style="stop-color:#304669"/>
	</linearGradient>
	<polygon style="fill:url(#SVGID_12_);" points="96.74,97.449 100.523,96.162 100.523,127 96.74,128.277 	"/>
	<polygon style="fill:#51D5FB;" points="118.461,114.007 114.678,112.73 118.461,111.46 123.813,111.46 127.597,112.73 
		123.813,114.007 	"/>
	
		<linearGradient id="SVGID_13_" gradientUnits="userSpaceOnUse" x1="119.8529" y1="85.5073" x2="122.5181" y2="77.4004" gradientTransform="matrix(1 0 0 -1 0 202)">
		<stop  offset="0.0048" style="stop-color:#39A1CB"/>
		<stop  offset="1" style="stop-color:#284969"/>
	</linearGradient>
	<rect x="118.461" y="114.016" style="fill:url(#SVGID_13_);" width="5.352" height="12.765"/>
	<polygon style="fill:#44B9DA;" points="118.461,114.016 114.678,112.73 114.678,125.504 118.461,126.781 	"/>
	
		<linearGradient id="SVGID_14_" gradientUnits="userSpaceOnUse" x1="124.5725" y1="85.6891" x2="126.9228" y2="78.5403" gradientTransform="matrix(1 0 0 -1 0 202)">
		<stop  offset="0" style="stop-color:#3C7FAA"/>
		<stop  offset="1" style="stop-color:#304669"/>
	</linearGradient>
	<polygon style="fill:url(#SVGID_14_);" points="123.813,114.016 127.597,112.73 127.597,125.504 123.813,126.781 	"/>
	<polygon style="fill:#51D5FB;" points="109.604,88.026 105.821,86.749 109.604,85.479 114.957,85.479 118.741,86.749 
		114.957,88.026 	"/>
	
		<linearGradient id="SVGID_15_" gradientUnits="userSpaceOnUse" x1="108.5664" y1="105.139" x2="116.2738" y2="81.6958" gradientTransform="matrix(1 0 0 -1 0 202)">
		<stop  offset="0" style="stop-color:#4689B4"/>
		<stop  offset="1" style="stop-color:#284969"/>
	</linearGradient>
	<rect x="109.604" y="88.036" style="fill:url(#SVGID_15_);" width="5.352" height="40.241"/>
	<polygon style="fill:#3FACCB;" points="109.604,88.036 105.821,86.749 105.821,127 109.604,128.277 	"/>
	
		<linearGradient id="SVGID_16_" gradientUnits="userSpaceOnUse" x1="113.2866" y1="105.321" x2="120.679" y2="82.8359" gradientTransform="matrix(1 0 0 -1 0 202)">
		<stop  offset="0" style="stop-color:#37638E"/>
		<stop  offset="1" style="stop-color:#284969"/>
	</linearGradient>
	<polygon style="fill:url(#SVGID_16_);" points="114.957,88.036 118.74,86.749 118.74,127 114.957,128.277 	"/>
	
		<linearGradient id="SVGID_17_" gradientUnits="userSpaceOnUse" x1="149.0097" y1="92.0826" x2="154.4806" y2="75.4419" gradientTransform="matrix(1 0 0 -1 0 202)">
		<stop  offset="0.0048" style="stop-color:#51D5FB"/>
		<stop  offset="1" style="stop-color:#428BBC"/>
	</linearGradient>
	<path style="fill:url(#SVGID_17_);" d="M157.015,101.263l-0.569,30.001c0,0-12.906-2.091-12.147-2.851
		C145.058,127.654,157.015,101.263,157.015,101.263z"/>
	
		<linearGradient id="SVGID_18_" gradientUnits="userSpaceOnUse" x1="163.4335" y1="94.9332" x2="168.9044" y2="78.2924" gradientTransform="matrix(1 0 0 -1 0 202)">
		<stop  offset="0.0048" style="stop-color:#51D5FB"/>
		<stop  offset="1" style="stop-color:#428BBC"/>
	</linearGradient>
	<path style="fill:url(#SVGID_18_);" d="M171.439,98.413l-0.569,30.001c0,0-12.906-2.091-12.147-2.851
		C159.482,124.803,171.439,98.413,171.439,98.413z"/>
	
		<linearGradient id="SVGID_19_" gradientUnits="userSpaceOnUse" x1="177.8585" y1="97.784" x2="183.3294" y2="81.1435" gradientTransform="matrix(1 0 0 -1 0 202)">
		<stop  offset="0.0048" style="stop-color:#51D5FB"/>
		<stop  offset="1" style="stop-color:#428BBC"/>
	</linearGradient>
	<path style="fill:url(#SVGID_19_);" d="M185.864,95.562l-0.569,30.001c0,0-12.906-2.091-12.147-2.851
		C173.907,121.952,185.864,95.562,185.864,95.562z"/>
	
		<linearGradient id="SVGID_20_" gradientUnits="userSpaceOnUse" x1="185.2803" y1="99.8421" x2="191.0983" y2="82.1457" gradientTransform="matrix(1 0 0 -1 0 202)">
		<stop  offset="0" style="stop-color:#3C7FAA"/>
		<stop  offset="1" style="stop-color:#304669"/>
	</linearGradient>
	<polygon style="fill:url(#SVGID_20_);" points="185.864,95.562 199.719,122.712 185.294,125.563 	"/>
	
		<linearGradient id="SVGID_21_" gradientUnits="userSpaceOnUse" x1="170.8559" y1="96.9913" x2="176.6739" y2="79.2949" gradientTransform="matrix(1 0 0 -1 0 202)">
		<stop  offset="0" style="stop-color:#3C7FAA"/>
		<stop  offset="1" style="stop-color:#304669"/>
	</linearGradient>
	<polygon style="fill:url(#SVGID_21_);" points="171.439,98.413 185.294,125.563 170.87,128.413 	"/>
	
		<linearGradient id="SVGID_22_" gradientUnits="userSpaceOnUse" x1="156.4315" y1="94.1406" x2="162.2495" y2="76.4442" gradientTransform="matrix(1 0 0 -1 0 202)">
		<stop  offset="0" style="stop-color:#3C7FAA"/>
		<stop  offset="1" style="stop-color:#304669"/>
	</linearGradient>
	<polygon style="fill:url(#SVGID_22_);" points="157.015,101.263 170.87,128.413 156.445,131.264 	"/>
	<path style="fill:#51D5FB;" d="M178.105,114.042"/>
	<polygon style="fill:#51D5FB;" points="100.672,118.952 96.889,117.675 100.672,116.405 106.025,116.405 109.809,117.675 
		106.025,118.952 	"/>
	
		<linearGradient id="SVGID_23_" gradientUnits="userSpaceOnUse" x1="102.2743" y1="81.1127" x2="104.5023" y2="74.336" gradientTransform="matrix(1 0 0 -1 0 202)">
		<stop  offset="0.0048" style="stop-color:#39A1CB"/>
		<stop  offset="1" style="stop-color:#284969"/>
	</linearGradient>
	<rect x="100.672" y="118.962" style="fill:url(#SVGID_23_);" width="5.352" height="10.382"/>
	<polygon style="fill:#44B9DA;" points="100.672,118.962 96.889,117.675 96.889,128.066 100.672,129.343 	"/>
	
		<linearGradient id="SVGID_24_" gradientUnits="userSpaceOnUse" x1="106.9948" y1="81.2947" x2="108.9077" y2="75.4762" gradientTransform="matrix(1 0 0 -1 0 202)">
		<stop  offset="0" style="stop-color:#3C7FAA"/>
		<stop  offset="1" style="stop-color:#304669"/>
	</linearGradient>
	<polygon style="fill:url(#SVGID_24_);" points="106.025,118.962 109.808,117.675 109.808,128.066 106.025,129.343 	"/>
	<path style="fill:none;stroke:#ABCCD9;stroke-linecap:round;stroke-linejoin:round;stroke-miterlimit:10;" d="M128.608,72.219"/>
	
		<linearGradient id="SVGID_25_" gradientUnits="userSpaceOnUse" x1="138.6886" y1="101.3625" x2="129.2362" y2="170.0494" gradientTransform="matrix(1 0 0 -1 0 202)">
		<stop  offset="0" style="stop-color:#3D9AB2"/>
		<stop  offset="1" style="stop-color:#246F9D"/>
	</linearGradient>
	<polygon style="fill:url(#SVGID_25_);" points="129.575,34.445 117.616,40.632 115.546,54.453 131.952,83.399 131.944,83.396 
		147.784,92.357 147.784,44.747 	"/>
	
		<linearGradient id="SVGID_26_" gradientUnits="userSpaceOnUse" x1="135.3855" y1="134.3094" x2="130.6143" y2="168.9806" gradientTransform="matrix(1 0 0 -1 0 202)">
		<stop  offset="0" style="stop-color:#3D9AB2"/>
		<stop  offset="1" style="stop-color:#246F9D"/>
	</linearGradient>
	<polygon style="fill:url(#SVGID_26_);" points="117.616,40.632 131.952,64.615 147.784,55.719 129.575,34.445 	"/>
	
		<linearGradient id="SVGID_27_" gradientUnits="userSpaceOnUse" x1="135.7356" y1="186.8558" x2="152.9477" y2="160.005" gradientTransform="matrix(1 0 0 -1 0 202)">
		<stop  offset="0" style="stop-color:#B7ECFB"/>
		<stop  offset="1" style="stop-color:#31CAF6"/>
	</linearGradient>
	<polygon style="fill:url(#SVGID_27_);" points="139.299,18.47 125.009,31.862 147.784,44.747 168.544,32.874 	"/>
	<polygon style="fill:#3FACCB;" points="129.575,34.445 147.784,55.719 155.659,40.243 	"/>
	<polygon style="fill:#43AFCE;" points="139.299,18.47 129.575,34.445 117.616,40.632 125.009,31.862 	"/>
	
		<linearGradient id="SVGID_28_" gradientUnits="userSpaceOnUse" x1="165.5817" y1="163.9301" x2="159.3853" y2="130.8829" gradientTransform="matrix(1 0 0 -1 0 202)">
		<stop  offset="0" style="stop-color:#448EC1"/>
		<stop  offset="1" style="stop-color:#263854"/>
	</linearGradient>
	<polygon style="fill:url(#SVGID_28_);" points="168.544,32.874 168.544,32.874 147.784,56.037 147.784,92.357 178.053,48.51 	"/>
	<polygon style="fill:#37638E;" points="147.784,55.719 131.952,64.615 131.952,83.399 147.784,92.357 155.325,67.698 	"/>
	
		<linearGradient id="SVGID_29_" gradientUnits="userSpaceOnUse" x1="165.4006" y1="131.8486" x2="160.237" y2="169.371" gradientTransform="matrix(1 0 0 -1 0 202)">
		<stop  offset="0" style="stop-color:#3D9AB2"/>
		<stop  offset="1" style="stop-color:#246F9D"/>
	</linearGradient>
	<polygon style="fill:url(#SVGID_29_);" points="155.659,40.243 168.544,32.874 178.053,48.51 155.325,67.698 147.784,55.719 	"/>
	
		<linearGradient id="SVGID_30_" gradientUnits="userSpaceOnUse" x1="144.62" y1="148.1466" x2="129.4734" y2="124.0497" gradientTransform="matrix(1 0 0 -1 0 202)">
		<stop  offset="0" style="stop-color:#37638E"/>
		<stop  offset="1" style="stop-color:#284969"/>
	</linearGradient>
	<polygon style="fill:url(#SVGID_30_);" points="131.952,83.399 147.784,55.719 131.952,64.615 	"/>
	<polyline style="fill:none;stroke:#FFFFFF;stroke-width:2;stroke-miterlimit:10;" points="304.286,90.91 268.641,140.543 
		225.493,140.543 	"/>
	<circle style="fill:#FFFFFF;" cx="225.493" cy="140.543" r="2.973"/>
</g>
</svg>
